<svg xmlns="http://www.w3.org/2000/svg" width="35.397" height="35.397" viewBox="0 0 35.397 35.397">
  <path id="Icon_awesome-facebook-square" data-name="Icon awesome-facebook-square" d="M31.6,2.25H3.793A3.793,3.793,0,0,0,0,6.043V33.855a3.793,3.793,0,0,0,3.793,3.793H14.637V25.613H9.659V19.949h4.978V15.632c0-4.911,2.923-7.623,7.4-7.623a30.155,30.155,0,0,1,4.387.382v4.82H23.954c-2.434,0-3.194,1.511-3.194,3.06v3.678h5.434l-.869,5.664H20.76V37.648H31.6A3.793,3.793,0,0,0,35.4,33.855V6.043A3.793,3.793,0,0,0,31.6,2.25Z" transform="translate(0 -2.25)" fill="#1c75bc"/>
</svg>
