<svg xmlns="http://www.w3.org/2000/svg" width="35" height="35" viewBox="0 0 35 35">
  <g id="Group_1" data-name="Group 1" transform="translate(-1057 -6117)">
    <rect id="Rectangle_34" data-name="Rectangle 34" width="35" height="35" rx="4" transform="translate(1057 6117)" fill="#1c75bc"/>
    <path id="Icon_simple-instagram" data-name="Icon simple-instagram" d="M9.8,0C7.134,0,6.8.012,5.757.059A7.223,7.223,0,0,0,3.379.514a4.8,4.8,0,0,0-1.735,1.13A4.779,4.779,0,0,0,.514,3.379,7.2,7.2,0,0,0,.059,5.757C.01,6.8,0,7.134,0,9.8s.012,2.993.059,4.038a7.227,7.227,0,0,0,.455,2.378,4.8,4.8,0,0,0,1.13,1.735,4.79,4.79,0,0,0,1.735,1.13,7.232,7.232,0,0,0,2.378.455c1.045.049,1.377.059,4.038.059s2.993-.012,4.038-.059a7.248,7.248,0,0,0,2.378-.455,5.006,5.006,0,0,0,2.865-2.865,7.227,7.227,0,0,0,.455-2.378c.049-1.045.059-1.377.059-4.038s-.012-2.993-.059-4.038a7.244,7.244,0,0,0-.455-2.378,4.807,4.807,0,0,0-1.13-1.735A4.772,4.772,0,0,0,16.211.514,7.206,7.206,0,0,0,13.833.059C12.788.01,12.456,0,9.8,0Zm0,1.763c2.614,0,2.926.013,3.959.058a5.4,5.4,0,0,1,1.818.339,3.223,3.223,0,0,1,1.859,1.859,5.408,5.408,0,0,1,.337,1.818c.047,1.033.057,1.344.057,3.959s-.012,2.926-.06,3.959a5.512,5.512,0,0,1-.344,1.818,3.11,3.11,0,0,1-.734,1.128,3.056,3.056,0,0,1-1.126.731,5.448,5.448,0,0,1-1.824.337c-1.04.047-1.346.057-3.966.057s-2.927-.012-3.966-.06a5.554,5.554,0,0,1-1.825-.344,3.033,3.033,0,0,1-1.126-.734,2.974,2.974,0,0,1-.735-1.126,5.559,5.559,0,0,1-.343-1.824c-.037-1.028-.05-1.346-.05-3.954s.013-2.927.05-3.968a5.553,5.553,0,0,1,.343-1.824,2.9,2.9,0,0,1,.735-1.127,2.9,2.9,0,0,1,1.126-.733,5.421,5.421,0,0,1,1.813-.344c1.041-.037,1.347-.049,3.966-.049l.037.024Zm0,3a5.03,5.03,0,1,0,5.03,5.03A5.029,5.029,0,0,0,9.8,4.765Zm0,8.295A3.265,3.265,0,1,1,13.06,9.8,3.264,3.264,0,0,1,9.8,13.06Zm6.4-8.493a1.175,1.175,0,1,1-1.175-1.175A1.176,1.176,0,0,1,16.2,4.567Z" transform="translate(1064.346 6124.955)" fill="#fff"/>
  </g>
</svg>
