<svg xmlns="http://www.w3.org/2000/svg" width="35.398" height="35.398" viewBox="0 0 35.398 35.398">
  <path id="Icon_ionic-logo-linkedin" data-name="Icon ionic-logo-linkedin" d="M37.067,4.5H7.524A2.888,2.888,0,0,0,4.5,7.257V36.865A3.115,3.115,0,0,0,7.524,39.9H37.058a2.957,2.957,0,0,0,2.84-3.034V7.257A2.714,2.714,0,0,0,37.067,4.5ZM15.472,34.006H10.4V18.239h5.071Zm-2.36-18.165h-.037a2.6,2.6,0,0,1-2.674-2.72A2.619,2.619,0,0,1,13.14,10.4a2.612,2.612,0,0,1,2.711,2.72A2.619,2.619,0,0,1,13.112,15.842ZM34.006,34.006H28.934V25.385c0-2.065-.738-3.476-2.573-3.476a2.775,2.775,0,0,0-2.6,1.872,3.414,3.414,0,0,0-.175,1.245v8.981H18.515V18.239h5.071v2.195A5.133,5.133,0,0,1,28.16,17.87c3.329,0,5.846,2.195,5.846,6.925v9.212Z" transform="translate(-4.5 -4.5)" fill="#1c75bc"/>
</svg>
