<svg xmlns="http://www.w3.org/2000/svg" width="42.367" height="57.044" viewBox="0 0 42.367 57.044">
  <path id="money-bag" d="M216.6,110.482a18.793,18.793,0,0,0,.769-5.632c0-12.028-8.136-21.1-14.863-25.228a1.63,1.63,0,0,1-.437-2.582c7.692-9.244,4.961-14.661.561-10.8-4.772,4.146-8.005-1.46-16.865-3.527-6.819-1.6.522,9.283,4.3,14.433a1.824,1.824,0,0,1-.567,2.712c-6.649,4.211-14.492,13.175-14.492,25a18.373,18.373,0,0,0,.854,5.919,6.063,6.063,0,0,1-.124,3.755c-.437,1.213-.417,2.19.15,2.751a2.685,2.685,0,0,0,2.647.189,6.1,6.1,0,0,1,3.755.124c3.716,1.623,8.566,2,13.905,2,5.4,0,10.32-.378,14.074-2.067a5.63,5.63,0,0,1,3.716-.124c1.252.437,2.269.417,2.836-.124.626-.606.58-1.728.026-3.064A5.72,5.72,0,0,1,216.6,110.482Zm-15.58-3.944a5.858,5.858,0,0,1-3.4,1.917v2.9a3.641,3.641,0,0,1-1.063.15,3.816,3.816,0,0,1-1.108-.15v-2.647h-.209a13.889,13.889,0,0,1-1.46-.065,9.363,9.363,0,0,1-1.252-.163,11.159,11.159,0,0,1-1.167-.274c-.378-.124-.769-.274-1.186-.437a9.245,9.245,0,0,1,.274-1.46c.124-.482.293-1,.482-1.545a8.409,8.409,0,0,0,1.982.58,9.923,9.923,0,0,0,1.962.163,4.416,4.416,0,0,0,2.445-.541,1.882,1.882,0,0,0,.88-1.728,1.767,1.767,0,0,0-.254-.984,1.921,1.921,0,0,0-.58-.645,4,4,0,0,0-.815-.417c-.313-.124-.606-.254-.88-.378l-1.336-.58c-.541-.228-1.043-.482-1.5-.73a5.229,5.229,0,0,1-1.167-.939,4.141,4.141,0,0,1-.756-1.252,5.648,5.648,0,0,1-.254-1.793,4.809,4.809,0,0,1,1.271-3.54A5.718,5.718,0,0,1,195.45,90.4V87.75a3.98,3.98,0,0,1,2.164,0v2.582a11.932,11.932,0,0,1,1.943.293,12.774,12.774,0,0,1,1.943.567,8.191,8.191,0,0,1-.8,2.836c-.254-.085-.5-.189-.769-.293a4.965,4.965,0,0,0-.815-.254,8.856,8.856,0,0,0-1-.163,11.363,11.363,0,0,0-1.252-.065,6.438,6.438,0,0,0-.854.065,1.894,1.894,0,0,0-.8.274,1.48,1.48,0,0,0-.567.567,1.645,1.645,0,0,0-.228.939,2.265,2.265,0,0,0,.163.854,1.8,1.8,0,0,0,.482.58,3.82,3.82,0,0,0,.665.417l.756.313,1.5.626c.645.274,1.213.541,1.728.815a4.8,4.8,0,0,1,1.31.958,3.893,3.893,0,0,1,.834,1.376,5.763,5.763,0,0,1,.313,2.04A5.288,5.288,0,0,1,201.017,106.538Z" transform="translate(-175 -62.551)" fill="#1c75bc"/>
</svg>
