<svg xmlns="http://www.w3.org/2000/svg" width="41.762" height="56.348" viewBox="0 0 41.762 56.348">
  <path id="safety" d="M216.625,69.326c-16.473,0-19.248-6.24-19.294-6.311a.779.779,0,0,0-.734-.515h-.026a.8.8,0,0,0-.753.515c-.026.064-2.866,6.311-19.294,6.311a.822.822,0,0,0-.824.824V98.176c0,11.469,19.719,20.253,20.536,20.607a.659.659,0,0,0,.354.064.539.539,0,0,0,.309-.064c.844-.354,20.562-9.132,20.562-20.607V70.144A.819.819,0,0,0,216.625,69.326Zm-5.931,12.023c-7.406,6.8-13.182,16.183-14.94,20.672a.411.411,0,0,1-.335.264.071.071,0,0,1-.064.026.361.361,0,0,1-.309-.135l-10.89-11.07a22.022,22.022,0,0,1,3.362-2.891l5.976,4.688a70.064,70.064,0,0,1,16-13.781,12.294,12.294,0,0,1,1.314,1.732A.45.45,0,0,1,210.694,81.349Z" transform="translate(-175.7 -62.5)" fill="#1c75bc"/>
</svg>
