<svg xmlns="http://www.w3.org/2000/svg" width="41.167" height="57.81" viewBox="0 0 41.167 57.81">
  <path id="sand-clock" d="M206.694,85.882a29.152,29.152,0,0,1-3.938-8.424,1.531,1.531,0,0,1,.132-1.2,1.04,1.04,0,0,1,.859-.562h10.472a1.019,1.019,0,0,1,.865.562,1.56,1.56,0,0,1,.132,1.2,29.427,29.427,0,0,1-3.944,8.424,7.514,7.514,0,0,0-1.235,4.2,1.082,1.082,0,1,1-2.114,0A7.541,7.541,0,0,0,206.694,85.882Zm3.35,9.468a1.081,1.081,0,1,0-2.114,0,7.277,7.277,0,0,1-2.563,5.292,32.99,32.99,0,0,0-7.849,10.478,1.6,1.6,0,0,0,.007,1.315,1.047,1.047,0,0,0,.912.654h21.109a1.054,1.054,0,0,0,.912-.654,1.575,1.575,0,0,0,.013-1.315,32.8,32.8,0,0,0-7.856-10.478A7.215,7.215,0,0,1,210.044,95.349Zm19.523,22.331a2.412,2.412,0,0,1-2.114,2.63H190.508a2.69,2.69,0,0,1,0-5.252h.628c.733-10.227,5.543-18.076,9.283-23.652-3.746-5.576-8.543-13.425-9.269-23.652h-.628a2.69,2.69,0,0,1,0-5.252h36.939a2.689,2.689,0,0,1-.007,5.252h-.628c-.727,10.227-5.537,18.076-9.276,23.652,3.739,5.576,8.549,13.425,9.269,23.652h.628A2.41,2.41,0,0,1,229.567,117.68Zm-6.977-2.623c-.793-9.236-5.616-16.352-9.223-21.664l-.192-.291a3.119,3.119,0,0,1,0-3.389l.185-.284c3.607-5.312,8.437-12.427,9.23-21.664H195.383c.8,9.236,5.616,16.352,9.223,21.664l.2.284a3.119,3.119,0,0,1,0,3.389l-.2.291c-3.6,5.305-8.43,12.421-9.223,21.664Z" transform="translate(-188.4 -62.5)" fill="#1c75bc"/>
</svg>
