<svg xmlns="http://www.w3.org/2000/svg" width="48.4" height="52.133" viewBox="0 0 48.4 52.133">
  <path id="stopwatch" d="M62.015,3.847V2.773h1.507V0H56.04V2.773h1.345V3.853A24.112,24.112,0,0,0,42.7,10.724l-.61-.61.9-.891L41.954,8.2l-3.232,3.232,1.032,1.027.944-.944.667.662a24.183,24.183,0,1,0,20.65-8.326ZM60.727,48.119V44.511a1.027,1.027,0,0,0-2.054,0v3.608A20.206,20.206,0,0,1,39.514,28.96H42.96a1.027,1.027,0,1,0,0-2.054H39.514A20.2,20.2,0,0,1,58.678,7.747c-.005.047-.005,3.811-.005,3.811a1.027,1.027,0,0,0,2.054,0V7.794A20.123,20.123,0,0,1,79.886,26.906H76.414a1.027,1.027,0,1,0,0,2.054h3.472A20.206,20.206,0,0,1,60.727,48.119ZM61.6,28.736a2.011,2.011,0,1,0-1.9,1.382,1.826,1.826,0,0,0,.3-.063c.047.063,8.425,7.33,8.425,7.33l2.257.594-1.116-2.325Z" transform="translate(-35.5)" fill="#1c75bc"/>
</svg>
