<svg xmlns="http://www.w3.org/2000/svg" width="35" height="35" viewBox="0 0 35 35">
  <g id="Group_2" data-name="Group 2" transform="translate(-1003 -6117)">
    <rect id="Rectangle_33" data-name="Rectangle 33" width="35" height="35" rx="4" transform="translate(1003 6117)" fill="#1c75bc"/>
    <path id="Icon_ionic-logo-twitter" data-name="Icon ionic-logo-twitter" d="M22.959,6.577a8.937,8.937,0,0,1-2.539.7,4.436,4.436,0,0,0,1.945-2.447A8.784,8.784,0,0,1,19.558,5.9,4.419,4.419,0,0,0,11.91,8.924a4.328,4.328,0,0,0,.114,1.009A12.527,12.527,0,0,1,2.911,5.308a4.429,4.429,0,0,0,1.374,5.908,4.317,4.317,0,0,1-2.009-.552v.055a4.424,4.424,0,0,0,3.548,4.338,4.45,4.45,0,0,1-1.164.155,4.17,4.17,0,0,1-.831-.082A4.427,4.427,0,0,0,7.961,18.2,8.863,8.863,0,0,1,2.468,20.1a8.961,8.961,0,0,1-1.055-.064,12.356,12.356,0,0,0,6.767,2A12.5,12.5,0,0,0,20.768,9.44c0-.192,0-.384-.014-.571A9,9,0,0,0,22.959,6.577Z" transform="translate(1008.427 6121.484)" fill="#fff"/>
  </g>
</svg>
